# WaveFront *.obj file (generated by CINEMA 4D)

mtllib ./steve.mtl

v -1.57480311393738 -1.57480311393738 0.78740137815475
v 1.57480311393738 -1.57480311393738 0.78740137815475
v -1.57480311393738 -1.57480311393738 -0.78740179538727
v 1.57480311393738 -1.57480311393738 -0.78740179538727
v -1.57480311393738 3.14960622787476 0.78740137815475
v 1.57480311393738 3.14960622787476 0.78740137815475
v -1.57480311393738 3.14960622787476 -0.78740179538727
v 1.57480311393738 3.14960622787476 -0.78740179538727
v -1.57480311393738 3.14960622787476 1.57480311393738
v 1.57480311393738 3.14960622787476 1.57480311393738
v -1.57480311393738 3.14960622787476 -1.57480311393738
v 1.57480311393738 3.14960622787476 -1.57480311393738
v -1.57480311393738 6.29921245574951 1.57480311393738
v 1.57480311393738 6.29921245574951 1.57480311393738
v -1.57480311393738 6.29921245574951 -1.57480311393738
v 1.57480311393738 6.29921245574951 -1.57480311393738
v 3.14960622787476 -1.57480311393738 0.78740137815475
v 3.14960622787476 -1.57480311393738 -0.78740179538727
v 3.14960622787476 3.14960622787476 0.78740137815475
v 3.14960622787476 3.14960622787476 -0.78740179538727
v -3.14960622787476 -1.57480311393738 0.78740137815475
v -3.14960622787476 -1.57480311393738 -0.78740179538727
v -3.14960622787476 3.14960622787476 0.78740137815475
v -3.14960622787476 3.14960622787476 -0.78740179538727
v 0 -6.29921245574951 0.78740119934082
v 1.57480311393738 -6.29921245574951 0.78740119934082
v 0 -6.29921245574951 -0.7874019742012
v 1.57480311393738 -6.29921245574951 -0.7874019742012
v 0 -1.57480311393738 0.78740119934082
v 1.57480311393738 -1.57480311393738 0.78740119934082
v 0 -1.57480311393738 -0.7874019742012
v 1.57480311393738 -1.57480311393738 -0.7874019742012
v -1.57480311393738 -6.29921245574951 0.78740119934082
v -1.57480311393738 -6.29921245574951 -0.7874019742012
v -1.57480311393738 -1.57480311393738 0.78740119934082
v -1.57480311393738 -1.57480311393738 -0.7874019742012
# 36 vertices

vn 0 -1 0
vn 0 1 0
vn 0 0 1
vn 1 0 0
vn 0 0 -1
vn -1 0 0
# 6 normals

vt 0.56237518787384 0.6875 0
vt 0.5625 0.75 0
vt 0.4375 0.75 0
vt 0.4375 0.6875 0
vt 0.3125 0.75 0
vt 0.3125 0.6875 0
vt 0.4375 0.5 0
vt 0.3125 0.5 0
vt 0.5 0.6875 0
vt 0.5 0.5 0
vt 0.625 0.6875 0
vt 0.625 0.5 0
vt 0.25 0.6875 0
vt 0.25 0.5 0
vt 0.25 0.875 0
vt 0.375 0.875 0
vt 0.375 1 0
vt 0.25 1 0
vt 0.125 1 0
vt 0.125 0.875 0
vt 0.25 0.75 0
vt 0.125 0.75 0
vt 0.375 0.75 0
vt 0.5 0.875 0
vt 0.5 0.75 0
vt 0 0.875 0
vt 0.12500001490116 0.875 0
vt 0 0.75 0
vt 0.6875 0.1875 0
vt 0.6875 0.25 0
vt 0.625 0.25 0
vt 0.625 0.1875 0
vt 0.5625 0.25 0
vt 0.5625 0.1875 0
vt 0.625 0 0
vt 0.5625 0 0
vt 0.6875 0 0
vt 0.75 0.1875 0
vt 0.75 0 0
vt 0.5 0.1875 0
vt 0.5 0 0
vt 0.8125 0.6875 0
vt 0.8125 0.75 0
vt 0.75 0.75 0
vt 0.75 0.6875 0
vt 0.6875 0.75 0
vt 0.6875 0.6875 0
vt 0.75 0.5 0
vt 0.6875 0.5 0
vt 0.8125 0.5 0
vt 0.875 0.6875 0
vt 0.875 0.5 0
vt 0.4375 0.1875 0
vt 0.4375 0.25 0
vt 0.375 0.25 0
vt 0.375 0.1875 0
vt 0.3125 0.25 0
vt 0.3125 0.1875 0
vt 0.375 0 0
vt 0.3125 0 0
vt 0.4375 0 0
vt 0.25 0.1875 0
vt 0.25 0 0
vt 0.1875 0.6875 0
vt 0.1875 0.75 0
vt 0.125 0.6875 0
vt 0.0625 0.75 0
vt 0.0625 0.6875 0
vt 0.125 0.5 0
vt 0.0625 0.5 0
vt 0.1875 0.5 0
vt 0 0.6875 0
vt 0 0.5 0
# 73 texture coordinates

o Steve
usemtl 02 - Default
f 1/4/1 3/3/1 4/2/1 2/1/1
f 5/6/2 6/4/2 8/3/2 7/5/2
f 1/8/3 2/7/3 6/4/3 5/6/3
f 2/7/4 4/10/4 8/9/4 6/4/4
f 4/10/5 3/12/5 7/11/5 8/9/5
f 3/14/6 1/8/6 5/6/6 7/13/6
f 9/18/1 11/17/1 12/16/1 10/15/1
f 13/20/2 14/15/2 16/18/2 15/19/2
f 9/22/3 10/21/3 14/15/3 13/20/3
f 10/21/4 12/23/4 16/16/4 14/15/4
f 12/23/5 11/25/5 15/24/5 16/16/5
f 11/28/6 9/22/6 13/27/6 15/26/6
f 2/32/1 4/31/1 18/30/1 17/29/1
f 6/34/2 19/32/2 20/31/2 8/33/2
f 2/36/3 17/35/3 19/32/3 6/34/3
f 17/35/4 18/37/4 20/29/4 19/32/4
f 18/37/5 4/39/5 8/38/5 20/29/5
f 4/41/6 2/36/6 6/34/6 8/40/6
f 21/45/1 22/44/1 3/43/1 1/42/1
f 23/47/2 5/45/2 7/44/2 24/46/2
f 21/49/3 1/48/3 5/45/3 23/47/3
f 1/48/4 3/50/4 7/42/4 5/45/4
f 3/50/5 22/52/5 24/51/5 7/42/5
f 22/12/6 21/49/6 23/47/6 24/11/6
f 25/56/1 27/55/1 28/54/1 26/53/1
f 29/58/2 30/56/2 32/55/2 31/57/2
f 25/60/3 26/59/3 30/56/3 29/58/3
f 26/59/4 28/61/4 32/53/4 30/56/4
f 28/61/5 27/41/5 31/40/5 32/53/5
f 27/63/6 25/60/6 29/58/6 31/62/6
f 33/66/1 34/22/1 27/65/1 25/64/1
f 35/68/2 29/66/2 31/22/2 36/67/2
f 33/70/3 25/69/3 29/66/3 35/68/3
f 25/69/4 27/71/4 31/64/4 29/66/4
f 27/71/5 34/14/5 36/13/5 31/64/5
f 34/73/6 33/70/6 35/68/6 36/72/6

